<svg width="414" height="138" viewBox="0 0 414 138" fill="none" xmlns="http://www.w3.org/2000/svg">
<g filter="url(#filter0_d_410_48368)">
<rect x="42" y="38" width="330" height="54" rx="10" fill="#C3D4FE" shape-rendering="crispEdges"/>
<path d="M70.75 65C70.75 60.9959 73.9959 57.75 78 57.75C82.0041 57.75 85.25 60.9959 85.25 65C85.25 69.0041 82.0041 72.25 78 72.25C73.9959 72.25 70.75 69.0041 70.75 65Z" stroke="#243F80" stroke-width="1.5" stroke-linecap="round" stroke-linejoin="round"/>
<path d="M75.75 65.75L76.1837 66.6744C76.5275 67.407 77.5536 67.4492 77.9564 66.7473L80.25 62.75" stroke="#243F80" stroke-width="1.5" stroke-linecap="round" stroke-linejoin="round"/>
<path d="M103.404 69.612C102.471 69.612 101.663 69.4113 100.982 69.01C100.301 68.5993 99.7733 68.016 99.4 67.26C99.036 66.4947 98.854 65.594 98.854 64.558C98.854 63.5313 99.036 62.64 99.4 61.884C99.7733 61.1187 100.301 60.5353 100.982 60.134C101.663 59.7233 102.471 59.518 103.404 59.518C104.029 59.518 104.617 59.6207 105.168 59.826C105.728 60.022 106.213 60.3067 106.624 60.68C106.773 60.82 106.848 60.9833 106.848 61.17C106.848 61.3007 106.811 61.4173 106.736 61.52C106.661 61.6133 106.573 61.66 106.47 61.66C106.358 61.66 106.223 61.6087 106.064 61.506C105.588 61.1327 105.154 60.8713 104.762 60.722C104.379 60.5727 103.936 60.498 103.432 60.498C102.349 60.498 101.514 60.8527 100.926 61.562C100.347 62.262 100.058 63.2607 100.058 64.558C100.058 65.8647 100.347 66.8727 100.926 67.582C101.514 68.282 102.349 68.632 103.432 68.632C103.927 68.632 104.37 68.5573 104.762 68.408C105.154 68.2587 105.588 67.9973 106.064 67.624C106.223 67.5213 106.358 67.47 106.47 67.47C106.573 67.47 106.661 67.5167 106.736 67.61C106.811 67.7033 106.848 67.82 106.848 67.96C106.848 68.1467 106.773 68.31 106.624 68.45C106.213 68.8233 105.728 69.1127 105.168 69.318C104.617 69.514 104.029 69.612 103.404 69.612ZM111.174 62.514C112.882 62.514 113.736 63.41 113.736 65.202V69.01C113.736 69.178 113.685 69.3133 113.582 69.416C113.489 69.5187 113.358 69.57 113.19 69.57C113.022 69.57 112.887 69.5187 112.784 69.416C112.681 69.3133 112.63 69.178 112.63 69.01V68.338C112.453 68.7393 112.182 69.052 111.818 69.276C111.454 69.4907 111.034 69.598 110.558 69.598C110.119 69.598 109.713 69.5093 109.34 69.332C108.976 69.1547 108.687 68.9073 108.472 68.59C108.257 68.2727 108.15 67.9227 108.15 67.54C108.15 67.0267 108.281 66.63 108.542 66.35C108.803 66.0607 109.233 65.8553 109.83 65.734C110.427 65.6033 111.258 65.538 112.322 65.538H112.63V65.076C112.63 64.516 112.513 64.1053 112.28 63.844C112.056 63.5827 111.687 63.452 111.174 63.452C110.539 63.452 109.895 63.6247 109.242 63.97C108.99 64.1287 108.813 64.208 108.71 64.208C108.598 64.208 108.505 64.166 108.43 64.082C108.355 63.998 108.318 63.8907 108.318 63.76C108.318 63.6293 108.355 63.5173 108.43 63.424C108.514 63.3213 108.645 63.2187 108.822 63.116C109.149 62.9293 109.517 62.7847 109.928 62.682C110.348 62.57 110.763 62.514 111.174 62.514ZM110.712 68.702C111.272 68.702 111.729 68.5153 112.084 68.142C112.448 67.7593 112.63 67.2693 112.63 66.672V66.266H112.378C111.557 66.266 110.931 66.3033 110.502 66.378C110.073 66.4433 109.765 66.56 109.578 66.728C109.401 66.8867 109.312 67.1247 109.312 67.442C109.312 67.806 109.443 68.1093 109.704 68.352C109.975 68.5853 110.311 68.702 110.712 68.702ZM121.286 59.56C121.463 59.56 121.603 59.6113 121.706 59.714C121.808 59.8167 121.86 59.9473 121.86 60.106V69.01C121.86 69.178 121.808 69.3133 121.706 69.416C121.603 69.5187 121.463 69.57 121.286 69.57C121.108 69.57 120.968 69.5187 120.866 69.416C120.772 69.3133 120.726 69.178 120.726 69.01V68.254C120.52 68.6833 120.217 69.0147 119.816 69.248C119.424 69.4813 118.962 69.598 118.43 69.598C117.832 69.598 117.305 69.4487 116.848 69.15C116.39 68.8513 116.036 68.436 115.784 67.904C115.532 67.3627 115.406 66.7373 115.406 66.028C115.406 65.328 115.532 64.712 115.784 64.18C116.036 63.648 116.39 63.2373 116.848 62.948C117.305 62.6587 117.832 62.514 118.43 62.514C118.962 62.514 119.424 62.6307 119.816 62.864C120.217 63.0973 120.52 63.4287 120.726 63.858V60.106C120.726 59.938 120.772 59.8073 120.866 59.714C120.968 59.6113 121.108 59.56 121.286 59.56ZM118.654 68.66C119.316 68.66 119.825 68.436 120.18 67.988C120.544 67.5307 120.726 66.8867 120.726 66.056C120.726 65.2253 120.544 64.586 120.18 64.138C119.825 63.69 119.316 63.466 118.654 63.466C117.991 63.466 117.473 63.69 117.1 64.138C116.736 64.586 116.554 65.216 116.554 66.028C116.554 66.8587 116.736 67.5073 117.1 67.974C117.473 68.4313 117.991 68.66 118.654 68.66ZM126.746 62.514C128.454 62.514 129.308 63.41 129.308 65.202V69.01C129.308 69.178 129.257 69.3133 129.154 69.416C129.061 69.5187 128.93 69.57 128.762 69.57C128.594 69.57 128.459 69.5187 128.356 69.416C128.253 69.3133 128.202 69.178 128.202 69.01V68.338C128.025 68.7393 127.754 69.052 127.39 69.276C127.026 69.4907 126.606 69.598 126.13 69.598C125.691 69.598 125.285 69.5093 124.912 69.332C124.548 69.1547 124.259 68.9073 124.044 68.59C123.829 68.2727 123.722 67.9227 123.722 67.54C123.722 67.0267 123.853 66.63 124.114 66.35C124.375 66.0607 124.805 65.8553 125.402 65.734C125.999 65.6033 126.83 65.538 127.894 65.538H128.202V65.076C128.202 64.516 128.085 64.1053 127.852 63.844C127.628 63.5827 127.259 63.452 126.746 63.452C126.111 63.452 125.467 63.6247 124.814 63.97C124.562 64.1287 124.385 64.208 124.282 64.208C124.17 64.208 124.077 64.166 124.002 64.082C123.927 63.998 123.89 63.8907 123.89 63.76C123.89 63.6293 123.927 63.5173 124.002 63.424C124.086 63.3213 124.217 63.2187 124.394 63.116C124.721 62.9293 125.089 62.7847 125.5 62.682C125.92 62.57 126.335 62.514 126.746 62.514ZM126.284 68.702C126.844 68.702 127.301 68.5153 127.656 68.142C128.02 67.7593 128.202 67.2693 128.202 66.672V66.266H127.95C127.129 66.266 126.503 66.3033 126.074 66.378C125.645 66.4433 125.337 66.56 125.15 66.728C124.973 66.8867 124.884 67.1247 124.884 67.442C124.884 67.806 125.015 68.1093 125.276 68.352C125.547 68.5853 125.883 68.702 126.284 68.702ZM133.68 69.598C133.251 69.598 132.84 69.5467 132.448 69.444C132.065 69.3413 131.725 69.1967 131.426 69.01C131.258 68.898 131.137 68.7953 131.062 68.702C130.997 68.5993 130.964 68.478 130.964 68.338C130.964 68.2167 130.997 68.1187 131.062 68.044C131.137 67.96 131.23 67.918 131.342 67.918C131.454 67.918 131.617 67.988 131.832 68.128C132.112 68.296 132.387 68.4313 132.658 68.534C132.938 68.6273 133.283 68.674 133.694 68.674C134.198 68.674 134.59 68.5853 134.87 68.408C135.15 68.2307 135.29 67.974 135.29 67.638C135.29 67.4327 135.239 67.2693 135.136 67.148C135.033 67.0173 134.856 66.9053 134.604 66.812C134.352 66.7093 133.983 66.6067 133.498 66.504C132.677 66.3267 132.089 66.0887 131.734 65.79C131.379 65.4913 131.202 65.0853 131.202 64.572C131.202 64.1707 131.314 63.816 131.538 63.508C131.762 63.2 132.07 62.9573 132.462 62.78C132.863 62.6027 133.316 62.514 133.82 62.514C134.184 62.514 134.534 62.5653 134.87 62.668C135.215 62.7613 135.519 62.8967 135.78 63.074C136.097 63.298 136.256 63.5313 136.256 63.774C136.256 63.8953 136.219 63.998 136.144 64.082C136.069 64.166 135.981 64.208 135.878 64.208C135.766 64.208 135.598 64.1287 135.374 63.97C135.113 63.802 134.865 63.6713 134.632 63.578C134.399 63.4847 134.109 63.438 133.764 63.438C133.325 63.438 132.971 63.536 132.7 63.732C132.439 63.928 132.308 64.1893 132.308 64.516C132.308 64.7213 132.355 64.8893 132.448 65.02C132.551 65.1413 132.714 65.2533 132.938 65.356C133.171 65.4493 133.503 65.5427 133.932 65.636C134.567 65.776 135.057 65.93 135.402 66.098C135.757 66.266 136.009 66.4713 136.158 66.714C136.307 66.9567 136.382 67.2647 136.382 67.638C136.382 68.226 136.135 68.702 135.64 69.066C135.145 69.4207 134.492 69.598 133.68 69.598ZM141.192 68.674C141.519 68.702 141.682 68.8513 141.682 69.122C141.682 69.2807 141.622 69.402 141.5 69.486C141.388 69.5607 141.216 69.5887 140.982 69.57L140.604 69.542C139.858 69.486 139.307 69.262 138.952 68.87C138.598 68.478 138.42 67.8853 138.42 67.092V63.578H137.482C137.324 63.578 137.198 63.5407 137.104 63.466C137.02 63.382 136.978 63.2747 136.978 63.144C136.978 63.004 137.02 62.892 137.104 62.808C137.198 62.724 137.324 62.682 137.482 62.682H138.42V61.1C138.42 60.9227 138.472 60.7873 138.574 60.694C138.677 60.5913 138.817 60.54 138.994 60.54C139.162 60.54 139.298 60.5913 139.4 60.694C139.503 60.7873 139.554 60.9227 139.554 61.1V62.682H141.108C141.258 62.682 141.374 62.724 141.458 62.808C141.552 62.892 141.598 63.004 141.598 63.144C141.598 63.2747 141.552 63.382 141.458 63.466C141.374 63.5407 141.258 63.578 141.108 63.578H139.554V67.148C139.554 67.6613 139.657 68.0347 139.862 68.268C140.077 68.492 140.394 68.618 140.814 68.646L141.192 68.674ZM146.174 62.542C146.566 62.514 146.762 62.6727 146.762 63.018C146.762 63.1673 146.72 63.2887 146.636 63.382C146.552 63.466 146.407 63.5173 146.202 63.536L145.782 63.578C145.157 63.634 144.69 63.858 144.382 64.25C144.083 64.6327 143.934 65.0853 143.934 65.608V69.01C143.934 69.1967 143.883 69.3367 143.78 69.43C143.677 69.5233 143.542 69.57 143.374 69.57C143.206 69.57 143.066 69.5233 142.954 69.43C142.851 69.3273 142.8 69.1873 142.8 69.01V63.102C142.8 62.9247 142.856 62.7893 142.968 62.696C143.08 62.5933 143.215 62.542 143.374 62.542C143.523 62.542 143.649 62.5933 143.752 62.696C143.855 62.7893 143.906 62.92 143.906 63.088V63.872C144.102 63.4613 144.377 63.1487 144.732 62.934C145.096 62.7193 145.511 62.5933 145.978 62.556L146.174 62.542ZM150.427 69.598C149.783 69.598 149.213 69.4533 148.719 69.164C148.233 68.8747 147.855 68.464 147.585 67.932C147.323 67.3907 147.193 66.7653 147.193 66.056C147.193 65.3467 147.323 64.726 147.585 64.194C147.855 63.6527 148.233 63.2373 148.719 62.948C149.213 62.6587 149.783 62.514 150.427 62.514C151.071 62.514 151.64 62.6587 152.135 62.948C152.629 63.2373 153.007 63.6527 153.269 64.194C153.539 64.726 153.675 65.3467 153.675 66.056C153.675 66.7653 153.539 67.3907 153.269 67.932C153.007 68.464 152.629 68.8747 152.135 69.164C151.64 69.4533 151.071 69.598 150.427 69.598ZM150.427 68.66C151.099 68.66 151.612 68.4407 151.967 68.002C152.331 67.554 152.513 66.9053 152.513 66.056C152.513 65.2253 152.331 64.586 151.967 64.138C151.603 63.6807 151.089 63.452 150.427 63.452C149.764 63.452 149.251 63.6807 148.887 64.138C148.523 64.586 148.341 65.2253 148.341 66.056C148.341 66.896 148.518 67.54 148.873 67.988C149.237 68.436 149.755 68.66 150.427 68.66ZM161.788 69.598C161.153 69.598 160.588 69.4533 160.094 69.164C159.608 68.8747 159.23 68.464 158.96 67.932C158.698 67.4 158.568 66.784 158.568 66.084C158.568 65.384 158.703 64.7633 158.974 64.222C159.254 63.6807 159.641 63.2607 160.136 62.962C160.63 62.6633 161.2 62.514 161.844 62.514C162.198 62.514 162.548 62.5653 162.894 62.668C163.248 62.7613 163.556 62.9013 163.818 63.088C163.986 63.2 164.102 63.312 164.168 63.424C164.242 63.5267 164.28 63.6433 164.28 63.774C164.28 63.9047 164.242 64.012 164.168 64.096C164.102 64.18 164.014 64.222 163.902 64.222C163.836 64.222 163.766 64.2033 163.692 64.166C163.617 64.1287 163.552 64.0913 163.496 64.054C163.449 64.0167 163.416 63.9933 163.398 63.984C163.155 63.8253 162.922 63.6993 162.698 63.606C162.483 63.5127 162.217 63.466 161.9 63.466C161.218 63.466 160.686 63.6993 160.304 64.166C159.93 64.6233 159.744 65.2627 159.744 66.084C159.744 66.9053 159.93 67.54 160.304 67.988C160.686 68.436 161.218 68.66 161.9 68.66C162.217 68.66 162.488 68.6133 162.712 68.52C162.945 68.4267 163.178 68.3007 163.412 68.142C163.514 68.0767 163.612 68.0207 163.706 67.974C163.799 67.9273 163.878 67.904 163.944 67.904C164.046 67.904 164.13 67.946 164.196 68.03C164.27 68.114 164.308 68.2213 164.308 68.352C164.308 68.4733 164.275 68.5853 164.21 68.688C164.144 68.7813 164.023 68.8887 163.846 69.01C163.584 69.1873 163.267 69.332 162.894 69.444C162.53 69.5467 162.161 69.598 161.788 69.598ZM168.501 69.598C167.857 69.598 167.288 69.4533 166.793 69.164C166.308 68.8747 165.93 68.464 165.659 67.932C165.398 67.3907 165.267 66.7653 165.267 66.056C165.267 65.3467 165.398 64.726 165.659 64.194C165.93 63.6527 166.308 63.2373 166.793 62.948C167.288 62.6587 167.857 62.514 168.501 62.514C169.145 62.514 169.714 62.6587 170.209 62.948C170.704 63.2373 171.082 63.6527 171.343 64.194C171.614 64.726 171.749 65.3467 171.749 66.056C171.749 66.7653 171.614 67.3907 171.343 67.932C171.082 68.464 170.704 68.8747 170.209 69.164C169.714 69.4533 169.145 69.598 168.501 69.598ZM168.501 68.66C169.173 68.66 169.686 68.4407 170.041 68.002C170.405 67.554 170.587 66.9053 170.587 66.056C170.587 65.2253 170.405 64.586 170.041 64.138C169.677 63.6807 169.164 63.452 168.501 63.452C167.838 63.452 167.325 63.6807 166.961 64.138C166.597 64.586 166.415 65.2253 166.415 66.056C166.415 66.896 166.592 67.54 166.947 67.988C167.311 68.436 167.829 68.66 168.501 68.66ZM176.869 62.514C178.502 62.514 179.319 63.4147 179.319 65.216V69.01C179.319 69.1873 179.267 69.3273 179.165 69.43C179.071 69.5233 178.936 69.57 178.759 69.57C178.581 69.57 178.441 69.5233 178.339 69.43C178.236 69.3273 178.185 69.1873 178.185 69.01V65.286C178.185 64.6513 178.059 64.1893 177.807 63.9C177.564 63.6107 177.172 63.466 176.631 63.466C176.005 63.466 175.506 63.6573 175.133 64.04C174.759 64.4227 174.573 64.9407 174.573 65.594V69.01C174.573 69.1873 174.521 69.3273 174.419 69.43C174.325 69.5233 174.19 69.57 174.013 69.57C173.835 69.57 173.695 69.5233 173.593 69.43C173.49 69.3273 173.439 69.1873 173.439 69.01V63.102C173.439 62.934 173.49 62.7987 173.593 62.696C173.695 62.5933 173.835 62.542 174.013 62.542C174.181 62.542 174.311 62.5933 174.405 62.696C174.507 62.7987 174.559 62.9293 174.559 63.088V63.802C174.783 63.382 175.095 63.0647 175.497 62.85C175.898 62.626 176.355 62.514 176.869 62.514ZM184.21 69.598C183.575 69.598 183.01 69.4533 182.516 69.164C182.03 68.8747 181.652 68.464 181.382 67.932C181.12 67.4 180.99 66.784 180.99 66.084C180.99 65.384 181.125 64.7633 181.396 64.222C181.676 63.6807 182.063 63.2607 182.558 62.962C183.052 62.6633 183.622 62.514 184.266 62.514C184.62 62.514 184.97 62.5653 185.316 62.668C185.67 62.7613 185.978 62.9013 186.24 63.088C186.408 63.2 186.524 63.312 186.59 63.424C186.664 63.5267 186.702 63.6433 186.702 63.774C186.702 63.9047 186.664 64.012 186.59 64.096C186.524 64.18 186.436 64.222 186.324 64.222C186.258 64.222 186.188 64.2033 186.114 64.166C186.039 64.1287 185.974 64.0913 185.918 64.054C185.871 64.0167 185.838 63.9933 185.82 63.984C185.577 63.8253 185.344 63.6993 185.12 63.606C184.905 63.5127 184.639 63.466 184.322 63.466C183.64 63.466 183.108 63.6993 182.726 64.166C182.352 64.6233 182.166 65.2627 182.166 66.084C182.166 66.9053 182.352 67.54 182.726 67.988C183.108 68.436 183.64 68.66 184.322 68.66C184.639 68.66 184.91 68.6133 185.134 68.52C185.367 68.4267 185.6 68.3007 185.834 68.142C185.936 68.0767 186.034 68.0207 186.128 67.974C186.221 67.9273 186.3 67.904 186.366 67.904C186.468 67.904 186.552 67.946 186.618 68.03C186.692 68.114 186.73 68.2213 186.73 68.352C186.73 68.4733 186.697 68.5853 186.632 68.688C186.566 68.7813 186.445 68.8887 186.268 69.01C186.006 69.1873 185.689 69.332 185.316 69.444C184.952 69.5467 184.583 69.598 184.21 69.598ZM188.669 69.57C188.501 69.57 188.361 69.5233 188.249 69.43C188.146 69.3273 188.095 69.1873 188.095 69.01V60.12C188.095 59.9427 188.146 59.8073 188.249 59.714C188.361 59.6113 188.501 59.56 188.669 59.56C188.828 59.56 188.958 59.6113 189.061 59.714C189.173 59.8073 189.229 59.9427 189.229 60.12V69.01C189.229 69.1873 189.173 69.3273 189.061 69.43C188.958 69.5233 188.828 69.57 188.669 69.57ZM196.529 62.542C196.706 62.542 196.841 62.5933 196.935 62.696C197.037 62.7987 197.089 62.934 197.089 63.102V69.024C197.089 69.1827 197.037 69.3133 196.935 69.416C196.841 69.5187 196.706 69.57 196.529 69.57C196.361 69.57 196.225 69.5233 196.123 69.43C196.029 69.3273 195.983 69.1967 195.983 69.038V68.338C195.768 68.7487 195.465 69.0613 195.073 69.276C194.69 69.4907 194.256 69.598 193.771 69.598C192.959 69.598 192.347 69.374 191.937 68.926C191.526 68.4687 191.321 67.7967 191.321 66.91V63.102C191.321 62.934 191.372 62.7987 191.475 62.696C191.577 62.5933 191.717 62.542 191.895 62.542C192.072 62.542 192.207 62.5933 192.301 62.696C192.403 62.7987 192.455 62.934 192.455 63.102V66.882C192.455 67.4887 192.576 67.9367 192.819 68.226C193.061 68.506 193.444 68.646 193.967 68.646C194.564 68.646 195.045 68.4547 195.409 68.072C195.773 67.68 195.955 67.1667 195.955 66.532V63.102C195.955 62.934 196.006 62.7987 196.109 62.696C196.211 62.5933 196.351 62.542 196.529 62.542ZM199.77 69.57C199.602 69.57 199.462 69.5233 199.35 69.43C199.248 69.3273 199.196 69.1873 199.196 69.01V63.102C199.196 62.9247 199.248 62.7893 199.35 62.696C199.462 62.5933 199.602 62.542 199.77 62.542C199.938 62.542 200.074 62.5933 200.176 62.696C200.279 62.7893 200.33 62.9247 200.33 63.102V69.01C200.33 69.1967 200.279 69.3367 200.176 69.43C200.074 69.5233 199.938 69.57 199.77 69.57ZM200.022 61.772C199.948 61.828 199.873 61.856 199.798 61.856C199.705 61.856 199.626 61.828 199.56 61.772C199.495 61.7067 199.462 61.632 199.462 61.548C199.462 61.4733 199.49 61.4033 199.546 61.338L201.17 59.21C201.338 58.9953 201.53 58.888 201.744 58.888C201.894 58.888 202.02 58.9393 202.122 59.042C202.225 59.1353 202.276 59.2567 202.276 59.406C202.276 59.602 202.183 59.7793 201.996 59.938L200.022 61.772ZM207.924 59.56C208.102 59.56 208.242 59.6113 208.344 59.714C208.447 59.8167 208.498 59.9473 208.498 60.106V69.01C208.498 69.178 208.447 69.3133 208.344 69.416C208.242 69.5187 208.102 69.57 207.924 69.57C207.747 69.57 207.607 69.5187 207.504 69.416C207.411 69.3133 207.364 69.178 207.364 69.01V68.254C207.159 68.6833 206.856 69.0147 206.454 69.248C206.062 69.4813 205.6 69.598 205.068 69.598C204.471 69.598 203.944 69.4487 203.486 69.15C203.029 68.8513 202.674 68.436 202.422 67.904C202.17 67.3627 202.044 66.7373 202.044 66.028C202.044 65.328 202.17 64.712 202.422 64.18C202.674 63.648 203.029 63.2373 203.486 62.948C203.944 62.6587 204.471 62.514 205.068 62.514C205.6 62.514 206.062 62.6307 206.454 62.864C206.856 63.0973 207.159 63.4287 207.364 63.858V60.106C207.364 59.938 207.411 59.8073 207.504 59.714C207.607 59.6113 207.747 59.56 207.924 59.56ZM205.292 68.66C205.955 68.66 206.464 68.436 206.818 67.988C207.182 67.5307 207.364 66.8867 207.364 66.056C207.364 65.2253 207.182 64.586 206.818 64.138C206.464 63.69 205.955 63.466 205.292 63.466C204.63 63.466 204.112 63.69 203.738 64.138C203.374 64.586 203.192 65.216 203.192 66.028C203.192 66.8587 203.374 67.5073 203.738 67.974C204.112 68.4313 204.63 68.66 205.292 68.66ZM213.427 69.598C212.783 69.598 212.213 69.4533 211.719 69.164C211.233 68.8747 210.855 68.464 210.585 67.932C210.323 67.3907 210.193 66.7653 210.193 66.056C210.193 65.3467 210.323 64.726 210.585 64.194C210.855 63.6527 211.233 63.2373 211.719 62.948C212.213 62.6587 212.783 62.514 213.427 62.514C214.071 62.514 214.64 62.6587 215.135 62.948C215.629 63.2373 216.007 63.6527 216.269 64.194C216.539 64.726 216.675 65.3467 216.675 66.056C216.675 66.7653 216.539 67.3907 216.269 67.932C216.007 68.464 215.629 68.8747 215.135 69.164C214.64 69.4533 214.071 69.598 213.427 69.598ZM213.427 68.66C214.099 68.66 214.612 68.4407 214.967 68.002C215.331 67.554 215.513 66.9053 215.513 66.056C215.513 65.2253 215.331 64.586 214.967 64.138C214.603 63.6807 214.089 63.452 213.427 63.452C212.764 63.452 212.251 63.6807 211.887 64.138C211.523 64.586 211.341 65.2253 211.341 66.056C211.341 66.896 211.518 67.54 211.873 67.988C212.237 68.436 212.755 68.66 213.427 68.66ZM224.788 69.598C224.153 69.598 223.588 69.4533 223.094 69.164C222.608 68.8747 222.23 68.464 221.96 67.932C221.698 67.4 221.568 66.784 221.568 66.084C221.568 65.384 221.703 64.7633 221.974 64.222C222.254 63.6807 222.641 63.2607 223.136 62.962C223.63 62.6633 224.2 62.514 224.844 62.514C225.198 62.514 225.548 62.5653 225.894 62.668C226.248 62.7613 226.556 62.9013 226.818 63.088C226.986 63.2 227.102 63.312 227.168 63.424C227.242 63.5267 227.28 63.6433 227.28 63.774C227.28 63.9047 227.242 64.012 227.168 64.096C227.102 64.18 227.014 64.222 226.902 64.222C226.836 64.222 226.766 64.2033 226.692 64.166C226.617 64.1287 226.552 64.0913 226.496 64.054C226.449 64.0167 226.416 63.9933 226.398 63.984C226.155 63.8253 225.922 63.6993 225.698 63.606C225.483 63.5127 225.217 63.466 224.9 63.466C224.218 63.466 223.686 63.6993 223.304 64.166C222.93 64.6233 222.744 65.2627 222.744 66.084C222.744 66.9053 222.93 67.54 223.304 67.988C223.686 68.436 224.218 68.66 224.9 68.66C225.217 68.66 225.488 68.6133 225.712 68.52C225.945 68.4267 226.178 68.3007 226.412 68.142C226.514 68.0767 226.612 68.0207 226.706 67.974C226.799 67.9273 226.878 67.904 226.944 67.904C227.046 67.904 227.13 67.946 227.196 68.03C227.27 68.114 227.308 68.2213 227.308 68.352C227.308 68.4733 227.275 68.5853 227.21 68.688C227.144 68.7813 227.023 68.8887 226.846 69.01C226.584 69.1873 226.267 69.332 225.894 69.444C225.53 69.5467 225.161 69.598 224.788 69.598ZM231.501 69.598C230.857 69.598 230.288 69.4533 229.793 69.164C229.308 68.8747 228.93 68.464 228.659 67.932C228.398 67.3907 228.267 66.7653 228.267 66.056C228.267 65.3467 228.398 64.726 228.659 64.194C228.93 63.6527 229.308 63.2373 229.793 62.948C230.288 62.6587 230.857 62.514 231.501 62.514C232.145 62.514 232.714 62.6587 233.209 62.948C233.704 63.2373 234.082 63.6527 234.343 64.194C234.614 64.726 234.749 65.3467 234.749 66.056C234.749 66.7653 234.614 67.3907 234.343 67.932C234.082 68.464 233.704 68.8747 233.209 69.164C232.714 69.4533 232.145 69.598 231.501 69.598ZM231.501 68.66C232.173 68.66 232.686 68.4407 233.041 68.002C233.405 67.554 233.587 66.9053 233.587 66.056C233.587 65.2253 233.405 64.586 233.041 64.138C232.677 63.6807 232.164 63.452 231.501 63.452C230.838 63.452 230.325 63.6807 229.961 64.138C229.597 64.586 229.415 65.2253 229.415 66.056C229.415 66.896 229.592 67.54 229.947 67.988C230.311 68.436 230.829 68.66 231.501 68.66ZM244.027 62.514C245.539 62.514 246.295 63.4147 246.295 65.216V69.01C246.295 69.1873 246.243 69.3273 246.141 69.43C246.038 69.5233 245.903 69.57 245.735 69.57C245.567 69.57 245.427 69.5233 245.315 69.43C245.212 69.3273 245.161 69.1873 245.161 69.01V65.244C245.161 64.6187 245.049 64.166 244.825 63.886C244.601 63.606 244.251 63.466 243.775 63.466C243.205 63.466 242.757 63.6573 242.431 64.04C242.104 64.4227 241.941 64.9407 241.941 65.594V69.01C241.941 69.1873 241.885 69.3273 241.773 69.43C241.67 69.5233 241.535 69.57 241.367 69.57C241.199 69.57 241.063 69.5233 240.961 69.43C240.858 69.3273 240.807 69.1873 240.807 69.01V65.244C240.807 64.6187 240.695 64.166 240.471 63.886C240.247 63.606 239.892 63.466 239.407 63.466C238.847 63.466 238.399 63.6573 238.063 64.04C237.736 64.4227 237.573 64.9407 237.573 65.594V69.01C237.573 69.1873 237.521 69.3273 237.419 69.43C237.316 69.5233 237.181 69.57 237.013 69.57C236.845 69.57 236.705 69.5233 236.593 69.43C236.49 69.3273 236.439 69.1873 236.439 69.01V63.102C236.439 62.934 236.49 62.7987 236.593 62.696C236.705 62.5933 236.845 62.542 237.013 62.542C237.171 62.542 237.302 62.5933 237.405 62.696C237.507 62.7893 237.559 62.92 237.559 63.088V63.76C237.764 63.3587 238.049 63.0507 238.413 62.836C238.777 62.6213 239.197 62.514 239.673 62.514C240.737 62.514 241.432 62.962 241.759 63.858C241.955 63.4473 242.253 63.1207 242.655 62.878C243.056 62.6353 243.513 62.514 244.027 62.514ZM254.266 69.598C253.837 69.598 253.426 69.5467 253.034 69.444C252.651 69.3413 252.311 69.1967 252.012 69.01C251.844 68.898 251.723 68.7953 251.648 68.702C251.583 68.5993 251.55 68.478 251.55 68.338C251.55 68.2167 251.583 68.1187 251.648 68.044C251.723 67.96 251.816 67.918 251.928 67.918C252.04 67.918 252.203 67.988 252.418 68.128C252.698 68.296 252.973 68.4313 253.244 68.534C253.524 68.6273 253.869 68.674 254.28 68.674C254.784 68.674 255.176 68.5853 255.456 68.408C255.736 68.2307 255.876 67.974 255.876 67.638C255.876 67.4327 255.825 67.2693 255.722 67.148C255.619 67.0173 255.442 66.9053 255.19 66.812C254.938 66.7093 254.569 66.6067 254.084 66.504C253.263 66.3267 252.675 66.0887 252.32 65.79C251.965 65.4913 251.788 65.0853 251.788 64.572C251.788 64.1707 251.9 63.816 252.124 63.508C252.348 63.2 252.656 62.9573 253.048 62.78C253.449 62.6027 253.902 62.514 254.406 62.514C254.77 62.514 255.12 62.5653 255.456 62.668C255.801 62.7613 256.105 62.8967 256.366 63.074C256.683 63.298 256.842 63.5313 256.842 63.774C256.842 63.8953 256.805 63.998 256.73 64.082C256.655 64.166 256.567 64.208 256.464 64.208C256.352 64.208 256.184 64.1287 255.96 63.97C255.699 63.802 255.451 63.6713 255.218 63.578C254.985 63.4847 254.695 63.438 254.35 63.438C253.911 63.438 253.557 63.536 253.286 63.732C253.025 63.928 252.894 64.1893 252.894 64.516C252.894 64.7213 252.941 64.8893 253.034 65.02C253.137 65.1413 253.3 65.2533 253.524 65.356C253.757 65.4493 254.089 65.5427 254.518 65.636C255.153 65.776 255.643 65.93 255.988 66.098C256.343 66.266 256.595 66.4713 256.744 66.714C256.893 66.9567 256.968 67.2647 256.968 67.638C256.968 68.226 256.721 68.702 256.226 69.066C255.731 69.4207 255.078 69.598 254.266 69.598ZM263.876 62.542C264.054 62.542 264.189 62.5933 264.282 62.696C264.385 62.7987 264.436 62.934 264.436 63.102V69.024C264.436 69.1827 264.385 69.3133 264.282 69.416C264.189 69.5187 264.054 69.57 263.876 69.57C263.708 69.57 263.573 69.5233 263.47 69.43C263.377 69.3273 263.33 69.1967 263.33 69.038V68.338C263.116 68.7487 262.812 69.0613 262.42 69.276C262.038 69.4907 261.604 69.598 261.118 69.598C260.306 69.598 259.695 69.374 259.284 68.926C258.874 68.4687 258.668 67.7967 258.668 66.91V63.102C258.668 62.934 258.72 62.7987 258.822 62.696C258.925 62.5933 259.065 62.542 259.242 62.542C259.42 62.542 259.555 62.5933 259.648 62.696C259.751 62.7987 259.802 62.934 259.802 63.102V66.882C259.802 67.4887 259.924 67.9367 260.166 68.226C260.409 68.506 260.792 68.646 261.314 68.646C261.912 68.646 262.392 68.4547 262.756 68.072C263.12 67.68 263.302 67.1667 263.302 66.532V63.102C263.302 62.934 263.354 62.7987 263.456 62.696C263.559 62.5933 263.699 62.542 263.876 62.542ZM269.358 69.598C268.723 69.598 268.159 69.4533 267.664 69.164C267.179 68.8747 266.801 68.464 266.53 67.932C266.269 67.4 266.138 66.784 266.138 66.084C266.138 65.384 266.273 64.7633 266.544 64.222C266.824 63.6807 267.211 63.2607 267.706 62.962C268.201 62.6633 268.77 62.514 269.414 62.514C269.769 62.514 270.119 62.5653 270.464 62.668C270.819 62.7613 271.127 62.9013 271.388 63.088C271.556 63.2 271.673 63.312 271.738 63.424C271.813 63.5267 271.85 63.6433 271.85 63.774C271.85 63.9047 271.813 64.012 271.738 64.096C271.673 64.18 271.584 64.222 271.472 64.222C271.407 64.222 271.337 64.2033 271.262 64.166C271.187 64.1287 271.122 64.0913 271.066 64.054C271.019 64.0167 270.987 63.9933 270.968 63.984C270.725 63.8253 270.492 63.6993 270.268 63.606C270.053 63.5127 269.787 63.466 269.47 63.466C268.789 63.466 268.257 63.6993 267.874 64.166C267.501 64.6233 267.314 65.2627 267.314 66.084C267.314 66.9053 267.501 67.54 267.874 67.988C268.257 68.436 268.789 68.66 269.47 68.66C269.787 68.66 270.058 68.6133 270.282 68.52C270.515 68.4267 270.749 68.3007 270.982 68.142C271.085 68.0767 271.183 68.0207 271.276 67.974C271.369 67.9273 271.449 67.904 271.514 67.904C271.617 67.904 271.701 67.946 271.766 68.03C271.841 68.114 271.878 68.2213 271.878 68.352C271.878 68.4733 271.845 68.5853 271.78 68.688C271.715 68.7813 271.593 68.8887 271.416 69.01C271.155 69.1873 270.837 69.332 270.464 69.444C270.1 69.5467 269.731 69.598 269.358 69.598ZM278.521 67.918C278.624 67.918 278.713 67.96 278.787 68.044C278.862 68.128 278.899 68.2353 278.899 68.366C278.899 68.5993 278.736 68.814 278.409 69.01C278.073 69.206 277.719 69.3553 277.345 69.458C276.972 69.5513 276.608 69.598 276.253 69.598C275.199 69.598 274.363 69.2853 273.747 68.66C273.141 68.0347 272.837 67.1713 272.837 66.07C272.837 65.37 272.973 64.754 273.243 64.222C273.514 63.6807 273.892 63.2607 274.377 62.962C274.872 62.6633 275.432 62.514 276.057 62.514C276.944 62.514 277.649 62.8033 278.171 63.382C278.694 63.9607 278.955 64.7447 278.955 65.734C278.955 65.9207 278.918 66.056 278.843 66.14C278.769 66.224 278.647 66.266 278.479 66.266H273.971C274.055 67.8713 274.816 68.674 276.253 68.674C276.617 68.674 276.93 68.6273 277.191 68.534C277.453 68.4313 277.733 68.296 278.031 68.128C278.274 67.988 278.437 67.918 278.521 67.918ZM276.071 63.396C275.474 63.396 274.993 63.5827 274.629 63.956C274.275 64.3293 274.065 64.8567 273.999 65.538H277.961C277.943 64.8473 277.77 64.32 277.443 63.956C277.117 63.5827 276.659 63.396 276.071 63.396ZM282.922 69.598C282.493 69.598 282.082 69.5467 281.69 69.444C281.308 69.3413 280.967 69.1967 280.668 69.01C280.5 68.898 280.379 68.7953 280.304 68.702C280.239 68.5993 280.206 68.478 280.206 68.338C280.206 68.2167 280.239 68.1187 280.304 68.044C280.379 67.96 280.472 67.918 280.584 67.918C280.696 67.918 280.86 67.988 281.074 68.128C281.354 68.296 281.63 68.4313 281.9 68.534C282.18 68.6273 282.526 68.674 282.936 68.674C283.44 68.674 283.832 68.5853 284.112 68.408C284.392 68.2307 284.532 67.974 284.532 67.638C284.532 67.4327 284.481 67.2693 284.378 67.148C284.276 67.0173 284.098 66.9053 283.846 66.812C283.594 66.7093 283.226 66.6067 282.74 66.504C281.919 66.3267 281.331 66.0887 280.976 65.79C280.622 65.4913 280.444 65.0853 280.444 64.572C280.444 64.1707 280.556 63.816 280.78 63.508C281.004 63.2 281.312 62.9573 281.704 62.78C282.106 62.6027 282.558 62.514 283.062 62.514C283.426 62.514 283.776 62.5653 284.112 62.668C284.458 62.7613 284.761 62.8967 285.022 63.074C285.34 63.298 285.498 63.5313 285.498 63.774C285.498 63.8953 285.461 63.998 285.386 64.082C285.312 64.166 285.223 64.208 285.12 64.208C285.008 64.208 284.84 64.1287 284.616 63.97C284.355 63.802 284.108 63.6713 283.874 63.578C283.641 63.4847 283.352 63.438 283.006 63.438C282.568 63.438 282.213 63.536 281.942 63.732C281.681 63.928 281.55 64.1893 281.55 64.516C281.55 64.7213 281.597 64.8893 281.69 65.02C281.793 65.1413 281.956 65.2533 282.18 65.356C282.414 65.4493 282.745 65.5427 283.174 65.636C283.809 65.776 284.299 65.93 284.644 66.098C284.999 66.266 285.251 66.4713 285.4 66.714C285.55 66.9567 285.624 67.2647 285.624 67.638C285.624 68.226 285.377 68.702 284.882 69.066C284.388 69.4207 283.734 69.598 282.922 69.598ZM289.649 69.598C289.219 69.598 288.809 69.5467 288.417 69.444C288.034 69.3413 287.693 69.1967 287.395 69.01C287.227 68.898 287.105 68.7953 287.031 68.702C286.965 68.5993 286.933 68.478 286.933 68.338C286.933 68.2167 286.965 68.1187 287.031 68.044C287.105 67.96 287.199 67.918 287.311 67.918C287.423 67.918 287.586 67.988 287.801 68.128C288.081 68.296 288.356 68.4313 288.627 68.534C288.907 68.6273 289.252 68.674 289.663 68.674C290.167 68.674 290.559 68.5853 290.839 68.408C291.119 68.2307 291.259 67.974 291.259 67.638C291.259 67.4327 291.207 67.2693 291.105 67.148C291.002 67.0173 290.825 66.9053 290.573 66.812C290.321 66.7093 289.952 66.6067 289.467 66.504C288.645 66.3267 288.057 66.0887 287.703 65.79C287.348 65.4913 287.171 65.0853 287.171 64.572C287.171 64.1707 287.283 63.816 287.507 63.508C287.731 63.2 288.039 62.9573 288.431 62.78C288.832 62.6027 289.285 62.514 289.789 62.514C290.153 62.514 290.503 62.5653 290.839 62.668C291.184 62.7613 291.487 62.8967 291.749 63.074C292.066 63.298 292.225 63.5313 292.225 63.774C292.225 63.8953 292.187 63.998 292.113 64.082C292.038 64.166 291.949 64.208 291.847 64.208C291.735 64.208 291.567 64.1287 291.343 63.97C291.081 63.802 290.834 63.6713 290.601 63.578C290.367 63.4847 290.078 63.438 289.733 63.438C289.294 63.438 288.939 63.536 288.669 63.732C288.407 63.928 288.277 64.1893 288.277 64.516C288.277 64.7213 288.323 64.8893 288.417 65.02C288.519 65.1413 288.683 65.2533 288.907 65.356C289.14 65.4493 289.471 65.5427 289.901 65.636C290.535 65.776 291.025 65.93 291.371 66.098C291.725 66.266 291.977 66.4713 292.127 66.714C292.276 66.9567 292.351 67.2647 292.351 67.638C292.351 68.226 292.103 68.702 291.609 69.066C291.114 69.4207 290.461 69.598 289.649 69.598ZM296.907 69.598C296.263 69.598 295.694 69.4533 295.199 69.164C294.714 68.8747 294.336 68.464 294.065 67.932C293.804 67.3907 293.673 66.7653 293.673 66.056C293.673 65.3467 293.804 64.726 294.065 64.194C294.336 63.6527 294.714 63.2373 295.199 62.948C295.694 62.6587 296.263 62.514 296.907 62.514C297.551 62.514 298.121 62.6587 298.615 62.948C299.11 63.2373 299.488 63.6527 299.749 64.194C300.02 64.726 300.155 65.3467 300.155 66.056C300.155 66.7653 300.02 67.3907 299.749 67.932C299.488 68.464 299.11 68.8747 298.615 69.164C298.121 69.4533 297.551 69.598 296.907 69.598ZM296.907 68.66C297.579 68.66 298.093 68.4407 298.447 68.002C298.811 67.554 298.993 66.9053 298.993 66.056C298.993 65.2253 298.811 64.586 298.447 64.138C298.083 63.6807 297.57 63.452 296.907 63.452C296.245 63.452 295.731 63.6807 295.367 64.138C295.003 64.586 294.821 65.2253 294.821 66.056C294.821 66.896 294.999 67.54 295.353 67.988C295.717 68.436 296.235 68.66 296.907 68.66Z" fill="#243F80"/>
<path d="M351.5 61.5L344.5 68.5" stroke="#243F80" stroke-width="1.5" stroke-linecap="round" stroke-linejoin="round"/>
<path d="M344.5 61.5L351.5 68.5" stroke="#243F80" stroke-width="1.5" stroke-linecap="round" stroke-linejoin="round"/>
</g>
<defs>
<filter id="filter0_d_410_48368" x="0" y="0" width="414" height="138" filterUnits="userSpaceOnUse" color-interpolation-filters="sRGB">
<feFlood flood-opacity="0" result="BackgroundImageFix"/>
<feColorMatrix in="SourceAlpha" type="matrix" values="0 0 0 0 0 0 0 0 0 0 0 0 0 0 0 0 0 0 127 0" result="hardAlpha"/>
<feOffset dy="4"/>
<feGaussianBlur stdDeviation="21"/>
<feComposite in2="hardAlpha" operator="out"/>
<feColorMatrix type="matrix" values="0 0 0 0 0 0 0 0 0 0 0 0 0 0 0 0 0 0 0.2 0"/>
<feBlend mode="normal" in2="BackgroundImageFix" result="effect1_dropShadow_410_48368"/>
<feBlend mode="normal" in="SourceGraphic" in2="effect1_dropShadow_410_48368" result="shape"/>
</filter>
</defs>
</svg>
