<svg width="40" height="41" viewBox="0 0 40 41" fill="none" xmlns="http://www.w3.org/2000/svg">
<rect y="0.5" width="40" height="40" rx="10" fill="white"/>
<path d="M9.45508 13.3696H13.0914" stroke="#DA0175" stroke-width="1.5" stroke-linecap="round" stroke-linejoin="round"/>
<path d="M9.45508 27.978H13.0914" stroke="#DA0175" stroke-width="1.5" stroke-linecap="round" stroke-linejoin="round"/>
<path d="M21.0918 13.3696H30.5463" stroke="#DA0175" stroke-width="1.5" stroke-linecap="round" stroke-linejoin="round"/>
<path d="M21.0918 27.978H30.5463" stroke="#DA0175" stroke-width="1.5" stroke-linecap="round" stroke-linejoin="round"/>
<path d="M9.45508 20.6738H20.3642" stroke="#DA0175" stroke-width="1.5" stroke-linecap="round" stroke-linejoin="round"/>
<path d="M28.3633 20.6738H30.5451" stroke="#DA0175" stroke-width="1.5" stroke-linecap="round" stroke-linejoin="round"/>
<path d="M17.0911 16.4996C18.8986 16.4996 20.3638 15.0981 20.3638 13.3692C20.3638 11.6403 18.8986 10.2388 17.0911 10.2388C15.2836 10.2388 13.8184 11.6403 13.8184 13.3692C13.8184 15.0981 15.2836 16.4996 17.0911 16.4996Z" stroke="#DA0175" stroke-width="1.5" stroke-linecap="round" stroke-linejoin="round"/>
<path d="M17.0911 31.1085C18.8986 31.1085 20.3638 29.707 20.3638 27.9781C20.3638 26.2492 18.8986 24.8477 17.0911 24.8477C15.2836 24.8477 13.8184 26.2492 13.8184 27.9781C13.8184 29.707 15.2836 31.1085 17.0911 31.1085Z" stroke="#DA0175" stroke-width="1.5" stroke-linecap="round" stroke-linejoin="round"/>
<path d="M24.3645 23.8043C26.172 23.8043 27.6373 22.4028 27.6373 20.6739C27.6373 18.945 26.172 17.5435 24.3645 17.5435C22.557 17.5435 21.0918 18.945 21.0918 20.6739C21.0918 22.4028 22.557 23.8043 24.3645 23.8043Z" stroke="#DA0175" stroke-width="1.5" stroke-linecap="round" stroke-linejoin="round"/>
</svg>
