<svg width="100" height="20" viewBox="0 0 100 20" fill="none" xmlns="http://www.w3.org/2000/svg">
<rect y="0.792969" width="100" height="19" rx="8" fill="#FFEFEF"/>
<path d="M9.876 14.891C9.64267 14.891 9.46067 14.8256 9.33 14.695C9.20867 14.5643 9.148 14.3823 9.148 14.149V5.56697C9.148 5.3243 9.20867 5.1423 9.33 5.02097C9.46067 4.8903 9.64267 4.82497 9.876 4.82497C10.1093 4.82497 10.2867 4.8903 10.408 5.02097C10.5387 5.1423 10.604 5.3243 10.604 5.56697V14.149C10.604 14.3823 10.5433 14.5643 10.422 14.695C10.3007 14.8256 10.1187 14.891 9.876 14.891ZM13.4401 14.891C13.2161 14.891 13.0434 14.8303 12.9221 14.709C12.8008 14.5783 12.7401 14.401 12.7401 14.177V8.57697C12.7401 8.34364 12.8008 8.1663 12.9221 8.04497C13.0434 7.92363 13.2114 7.86297 13.4261 7.86297C13.6501 7.86297 13.8181 7.92363 13.9301 8.04497C14.0514 8.1663 14.1121 8.34364 14.1121 8.57697V9.66897L13.9581 9.41697C14.1634 8.8943 14.4854 8.5023 14.9241 8.24097C15.3628 7.9703 15.8668 7.83497 16.4361 7.83497C16.9774 7.83497 17.4254 7.93764 17.7801 8.14297C18.1441 8.33897 18.4148 8.6423 18.5921 9.05297C18.7694 9.4543 18.8581 9.96297 18.8581 10.579V14.177C18.8581 14.401 18.7974 14.5783 18.6761 14.709C18.5548 14.8303 18.3821 14.891 18.1581 14.891C17.9248 14.891 17.7474 14.8303 17.6261 14.709C17.5048 14.5783 17.4441 14.401 17.4441 14.177V10.663C17.4441 10.075 17.3274 9.64564 17.0941 9.37497C16.8701 9.1043 16.5154 8.96897 16.0301 8.96897C15.4608 8.96897 15.0034 9.1463 14.6581 9.50097C14.3221 9.85564 14.1541 10.3316 14.1541 10.929V14.177C14.1541 14.653 13.9161 14.891 13.4401 14.891ZM22.9905 14.919C22.5145 14.919 22.0852 14.8256 21.7025 14.639C21.3292 14.4523 21.0352 14.2003 20.8205 13.883C20.6058 13.5656 20.4985 13.2063 20.4985 12.805C20.4985 12.301 20.6245 11.9043 20.8765 11.615C21.1378 11.3163 21.5625 11.1063 22.1505 10.985C22.7478 10.8543 23.5505 10.789 24.5585 10.789H25.2165V11.657H24.5725C23.9005 11.657 23.3685 11.6896 22.9765 11.755C22.5845 11.8203 22.3045 11.9323 22.1365 12.091C21.9778 12.2403 21.8985 12.4503 21.8985 12.721C21.8985 13.0756 22.0198 13.365 22.2625 13.589C22.5052 13.8036 22.8412 13.911 23.2705 13.911C23.6158 13.911 23.9192 13.8316 24.1805 13.673C24.4418 13.505 24.6472 13.281 24.7965 13.001C24.9552 12.721 25.0345 12.399 25.0345 12.035V10.425C25.0345 9.89297 24.9225 9.5103 24.6985 9.27697C24.4745 9.04364 24.1058 8.92697 23.5925 8.92697C23.2938 8.92697 22.9812 8.9643 22.6545 9.03897C22.3372 9.11364 22.0058 9.23964 21.6605 9.41697C21.5018 9.49164 21.3665 9.51497 21.2545 9.48697C21.1425 9.45897 21.0538 9.3983 20.9885 9.30497C20.9232 9.2023 20.8858 9.09497 20.8765 8.98297C20.8765 8.86164 20.9045 8.74497 20.9605 8.63297C21.0258 8.52097 21.1332 8.43697 21.2825 8.38097C21.6932 8.18497 22.0992 8.04497 22.5005 7.96097C22.9018 7.87697 23.2798 7.83497 23.6345 7.83497C24.2598 7.83497 24.7732 7.93297 25.1745 8.12897C25.5852 8.32497 25.8885 8.62364 26.0845 9.02497C26.2805 9.4263 26.3785 9.9443 26.3785 10.579V14.177C26.3785 14.401 26.3225 14.5783 26.2105 14.709C26.0985 14.8303 25.9352 14.891 25.7205 14.891C25.5152 14.891 25.3518 14.8303 25.2305 14.709C25.1092 14.5783 25.0485 14.401 25.0485 14.177V13.267H25.1745C25.0998 13.6123 24.9598 13.911 24.7545 14.163C24.5585 14.4056 24.3112 14.5923 24.0125 14.723C23.7138 14.8536 23.3732 14.919 22.9905 14.919ZM30.93 14.919C30.3327 14.919 29.8054 14.779 29.348 14.499C28.9 14.2096 28.55 13.799 28.298 13.267C28.046 12.7256 27.92 12.0956 27.92 11.377C27.92 10.6396 28.046 10.0096 28.298 9.48697C28.55 8.9643 28.9 8.5583 29.348 8.26897C29.8054 7.97964 30.3327 7.83497 30.93 7.83497C31.5274 7.83497 32.0407 7.9843 32.47 8.28297C32.9087 8.5723 33.2027 8.9643 33.352 9.45897H33.198V5.53897C33.198 5.30563 33.2587 5.1283 33.38 5.00697C33.5014 4.88564 33.674 4.82497 33.898 4.82497C34.122 4.82497 34.2947 4.88564 34.416 5.00697C34.5467 5.1283 34.612 5.30563 34.612 5.53897V14.177C34.612 14.401 34.5514 14.5783 34.43 14.709C34.3087 14.8303 34.136 14.891 33.912 14.891C33.688 14.891 33.5154 14.8303 33.394 14.709C33.2727 14.5783 33.212 14.401 33.212 14.177V12.945L33.366 13.253C33.2167 13.757 32.9227 14.163 32.484 14.471C32.0547 14.7696 31.5367 14.919 30.93 14.919ZM31.294 13.827C31.6767 13.827 32.0127 13.7336 32.302 13.547C32.5914 13.3603 32.8154 13.085 32.974 12.721C33.142 12.357 33.226 11.909 33.226 11.377C33.226 10.5743 33.0487 9.96764 32.694 9.55697C32.3394 9.1463 31.8727 8.94097 31.294 8.94097C30.902 8.94097 30.5614 9.0343 30.272 9.22097C29.9827 9.3983 29.754 9.66897 29.586 10.033C29.4274 10.397 29.348 10.845 29.348 11.377C29.348 12.1703 29.5254 12.777 29.88 13.197C30.2347 13.617 30.706 13.827 31.294 13.827ZM37.2975 14.877C37.0735 14.877 36.9008 14.8116 36.7795 14.681C36.6582 14.541 36.5975 14.3496 36.5975 14.107V8.64697C36.5975 8.4043 36.6582 8.21763 36.7795 8.08697C36.9008 7.9563 37.0735 7.89097 37.2975 7.89097C37.5215 7.89097 37.6942 7.9563 37.8155 8.08697C37.9462 8.21763 38.0115 8.4043 38.0115 8.64697V14.107C38.0115 14.3496 37.9508 14.541 37.8295 14.681C37.7082 14.8116 37.5308 14.877 37.2975 14.877ZM37.2975 6.43497C37.0175 6.43497 36.7982 6.36497 36.6395 6.22497C36.4902 6.08497 36.4155 5.88897 36.4155 5.63697C36.4155 5.37563 36.4902 5.17963 36.6395 5.04897C36.7982 4.90897 37.0175 4.83897 37.2975 4.83897C37.5775 4.83897 37.7922 4.90897 37.9415 5.04897C38.1002 5.17963 38.1795 5.37563 38.1795 5.63697C38.1795 5.88897 38.1002 6.08497 37.9415 6.22497C37.7922 6.36497 37.5775 6.43497 37.2975 6.43497ZM40.7298 14.891C40.5058 14.891 40.3331 14.8303 40.2118 14.709C40.0905 14.5783 40.0298 14.401 40.0298 14.177V8.57697C40.0298 8.34364 40.0905 8.1663 40.2118 8.04497C40.3331 7.92363 40.5011 7.86297 40.7158 7.86297C40.9398 7.86297 41.1078 7.92363 41.2198 8.04497C41.3411 8.1663 41.4018 8.34364 41.4018 8.57697V9.72497L41.2478 9.41697C41.4345 8.9223 41.7238 8.53497 42.1158 8.25497C42.5078 7.97497 42.9791 7.83497 43.5298 7.83497C44.0991 7.83497 44.5611 7.9703 44.9158 8.24097C45.2705 8.51164 45.5131 8.92697 45.6438 9.48697H45.4478C45.6251 8.97364 45.9285 8.5723 46.3578 8.28297C46.7871 7.9843 47.2865 7.83497 47.8558 7.83497C48.3785 7.83497 48.8078 7.93764 49.1438 8.14297C49.4798 8.33897 49.7318 8.6423 49.8998 9.05297C50.0678 9.4543 50.1518 9.96297 50.1518 10.579V14.177C50.1518 14.401 50.0865 14.5783 49.9558 14.709C49.8345 14.8303 49.6618 14.891 49.4378 14.891C49.2138 14.891 49.0411 14.8303 48.9198 14.709C48.7985 14.5783 48.7378 14.401 48.7378 14.177V10.649C48.7378 10.0703 48.6351 9.64564 48.4298 9.37497C48.2338 9.1043 47.9071 8.96897 47.4498 8.96897C46.9365 8.96897 46.5305 9.1463 46.2318 9.50097C45.9331 9.85564 45.7838 10.3456 45.7838 10.971V14.177C45.7838 14.401 45.7231 14.5783 45.6018 14.709C45.4805 14.8303 45.3078 14.891 45.0838 14.891C44.8598 14.891 44.6825 14.8303 44.5518 14.709C44.4305 14.5783 44.3698 14.401 44.3698 14.177V10.649C44.3698 10.0703 44.2718 9.64564 44.0758 9.37497C43.8798 9.1043 43.5531 8.96897 43.0958 8.96897C42.5825 8.96897 42.1765 9.1463 41.8778 9.50097C41.5885 9.85564 41.4438 10.3456 41.4438 10.971V14.177C41.4438 14.653 41.2058 14.891 40.7298 14.891ZM52.8288 17.411C52.6048 17.411 52.4321 17.3503 52.3108 17.229C52.1894 17.1076 52.1288 16.9303 52.1288 16.697V8.57697C52.1288 8.34364 52.1894 8.1663 52.3108 8.04497C52.4321 7.92363 52.6001 7.86297 52.8148 7.86297C53.0388 7.86297 53.2114 7.92363 53.3328 8.04497C53.4541 8.1663 53.5148 8.34364 53.5148 8.57697V9.79497L53.3608 9.50097C53.5101 8.99697 53.8041 8.59564 54.2428 8.29697C54.6814 7.98897 55.1994 7.83497 55.7968 7.83497C56.4034 7.83497 56.9308 7.97964 57.3788 8.26897C57.8361 8.5583 58.1861 8.9643 58.4288 9.48697C58.6808 10.0096 58.8068 10.6396 58.8068 11.377C58.8068 12.0956 58.6808 12.7256 58.4288 13.267C58.1861 13.799 57.8408 14.2096 57.3928 14.499C56.9448 14.779 56.4128 14.919 55.7968 14.919C55.2088 14.919 54.6954 14.7696 54.2568 14.471C53.8181 14.1723 53.5241 13.7756 53.3748 13.281H53.5428V16.697C53.5428 16.9303 53.4774 17.1076 53.3468 17.229C53.2254 17.3503 53.0528 17.411 52.8288 17.411ZM55.4468 13.827C55.8388 13.827 56.1794 13.7336 56.4688 13.547C56.7581 13.3603 56.9821 13.085 57.1408 12.721C57.2994 12.357 57.3788 11.909 57.3788 11.377C57.3788 10.5743 57.2014 9.96764 56.8468 9.55697C56.5014 9.1463 56.0348 8.94097 55.4468 8.94097C55.0641 8.94097 54.7234 9.0343 54.4248 9.22097C54.1354 9.3983 53.9114 9.66897 53.7528 10.033C53.5941 10.397 53.5148 10.845 53.5148 11.377C53.5148 12.1703 53.6921 12.777 54.0468 13.197C54.4014 13.617 54.8681 13.827 55.4468 13.827ZM62.5983 14.919C61.8703 14.919 61.3196 14.709 60.9463 14.289C60.5823 13.8596 60.4003 13.2436 60.4003 12.441V5.53897C60.4003 5.30563 60.4609 5.1283 60.5823 5.00697C60.7036 4.88564 60.8763 4.82497 61.1003 4.82497C61.3243 4.82497 61.4969 4.88564 61.6183 5.00697C61.7489 5.1283 61.8143 5.30563 61.8143 5.53897V12.357C61.8143 12.8236 61.9076 13.1736 62.0943 13.407C62.2903 13.631 62.5703 13.743 62.9343 13.743C63.0183 13.743 63.0929 13.743 63.1583 13.743C63.2236 13.7336 63.2889 13.7243 63.3543 13.715C63.4663 13.7056 63.5456 13.7383 63.5923 13.813C63.6389 13.8783 63.6623 14.0183 63.6623 14.233C63.6623 14.429 63.6203 14.583 63.5363 14.695C63.4523 14.7976 63.3169 14.863 63.1303 14.891C63.0463 14.9003 62.9576 14.905 62.8643 14.905C62.7709 14.9143 62.6823 14.919 62.5983 14.919ZM67.8172 14.919C67.0705 14.919 66.4265 14.779 65.8852 14.499C65.3532 14.2096 64.9379 13.8036 64.6392 13.281C64.3499 12.749 64.2052 12.119 64.2052 11.391C64.2052 10.6816 64.3499 10.061 64.6392 9.52897C64.9285 8.99697 65.3252 8.58163 65.8292 8.28297C66.3332 7.9843 66.9072 7.83497 67.5512 7.83497C68.0272 7.83497 68.4519 7.9143 68.8252 8.07297C69.1985 8.2223 69.5159 8.4463 69.7772 8.74497C70.0479 9.0343 70.2485 9.38897 70.3792 9.80897C70.5192 10.229 70.5892 10.7003 70.5892 11.223C70.5892 11.3816 70.5425 11.503 70.4492 11.587C70.3559 11.6616 70.2159 11.699 70.0292 11.699H65.3252V10.831H69.6372L69.3992 11.027C69.3992 10.5603 69.3292 10.1636 69.1892 9.83697C69.0585 9.5103 68.8579 9.26297 68.5872 9.09497C68.3259 8.91764 67.9992 8.82897 67.6072 8.82897C67.1685 8.82897 66.7952 8.93164 66.4872 9.13697C66.1885 9.3423 65.9599 9.62697 65.8012 9.99097C65.6425 10.355 65.5632 10.7796 65.5632 11.265V11.349C65.5632 12.1703 65.7545 12.791 66.1372 13.211C66.5292 13.6216 67.0939 13.827 67.8312 13.827C68.1112 13.827 68.4052 13.7896 68.7132 13.715C69.0305 13.6403 69.3292 13.5143 69.6092 13.337C69.7679 13.2436 69.9079 13.2016 70.0292 13.211C70.1599 13.2203 70.2625 13.2623 70.3372 13.337C70.4212 13.4116 70.4725 13.505 70.4912 13.617C70.5099 13.729 70.4912 13.8456 70.4352 13.967C70.3792 14.079 70.2812 14.1816 70.1412 14.275C69.8239 14.4896 69.4552 14.653 69.0352 14.765C68.6152 14.8676 68.2092 14.919 67.8172 14.919ZM72.8307 14.891C72.6067 14.891 72.4341 14.8303 72.3127 14.709C72.1914 14.5783 72.1307 14.401 72.1307 14.177V8.57697C72.1307 8.34364 72.1914 8.1663 72.3127 8.04497C72.4341 7.92363 72.6021 7.86297 72.8167 7.86297C73.0407 7.86297 73.2087 7.92363 73.3207 8.04497C73.4421 8.1663 73.5027 8.34364 73.5027 8.57697V9.66897L73.3487 9.41697C73.5541 8.8943 73.8761 8.5023 74.3147 8.24097C74.7534 7.9703 75.2574 7.83497 75.8267 7.83497C76.3681 7.83497 76.8161 7.93764 77.1707 8.14297C77.5347 8.33897 77.8054 8.6423 77.9827 9.05297C78.1601 9.4543 78.2487 9.96297 78.2487 10.579V14.177C78.2487 14.401 78.1881 14.5783 78.0667 14.709C77.9454 14.8303 77.7727 14.891 77.5487 14.891C77.3154 14.891 77.1381 14.8303 77.0167 14.709C76.8954 14.5783 76.8347 14.401 76.8347 14.177V10.663C76.8347 10.075 76.7181 9.64564 76.4847 9.37497C76.2607 9.1043 75.9061 8.96897 75.4207 8.96897C74.8514 8.96897 74.3941 9.1463 74.0487 9.50097C73.7127 9.85564 73.5447 10.3316 73.5447 10.929V14.177C73.5447 14.653 73.3067 14.891 72.8307 14.891ZM83.1091 14.919C82.5491 14.919 82.0778 14.821 81.6951 14.625C81.3125 14.429 81.0278 14.1396 80.8411 13.757C80.6545 13.3743 80.5611 12.9076 80.5611 12.357V9.05297H79.7211C79.5345 9.05297 79.3898 9.0063 79.2871 8.91297C79.1845 8.8103 79.1331 8.67497 79.1331 8.50697C79.1331 8.32964 79.1845 8.1943 79.2871 8.10097C79.3898 8.00764 79.5345 7.96097 79.7211 7.96097H80.5611V6.51897C80.5611 6.28563 80.6218 6.1083 80.7431 5.98697C80.8738 5.86564 81.0511 5.80497 81.2751 5.80497C81.4991 5.80497 81.6718 5.86564 81.7931 5.98697C81.9145 6.1083 81.9751 6.28563 81.9751 6.51897V7.96097H83.6131C83.7998 7.96097 83.9445 8.00764 84.0471 8.10097C84.1498 8.1943 84.2011 8.32964 84.2011 8.50697C84.2011 8.67497 84.1498 8.8103 84.0471 8.91297C83.9445 9.0063 83.7998 9.05297 83.6131 9.05297H81.9751V12.245C81.9751 12.7396 82.0778 13.113 82.2831 13.365C82.4978 13.617 82.8431 13.743 83.3191 13.743C83.4871 13.743 83.6318 13.729 83.7531 13.701C83.8838 13.6636 83.9911 13.6403 84.0751 13.631C84.1778 13.631 84.2618 13.6683 84.3271 13.743C84.3925 13.8083 84.4251 13.939 84.4251 14.135C84.4251 14.275 84.3971 14.4056 84.3411 14.527C84.2945 14.6483 84.2058 14.7276 84.0751 14.765C83.9631 14.8023 83.8091 14.835 83.6131 14.863C83.4265 14.9003 83.2585 14.919 83.1091 14.919ZM88.448 14.919C87.7014 14.919 87.0574 14.779 86.516 14.499C85.984 14.2096 85.5687 13.8036 85.27 13.281C84.9807 12.749 84.836 12.119 84.836 11.391C84.836 10.6816 84.9807 10.061 85.27 9.52897C85.5594 8.99697 85.956 8.58163 86.46 8.28297C86.964 7.9843 87.538 7.83497 88.182 7.83497C88.658 7.83497 89.0827 7.9143 89.456 8.07297C89.8294 8.2223 90.1467 8.4463 90.408 8.74497C90.6787 9.0343 90.8794 9.38897 91.01 9.80897C91.15 10.229 91.22 10.7003 91.22 11.223C91.22 11.3816 91.1734 11.503 91.08 11.587C90.9867 11.6616 90.8467 11.699 90.66 11.699H85.956V10.831H90.268L90.03 11.027C90.03 10.5603 89.96 10.1636 89.82 9.83697C89.6894 9.5103 89.4887 9.26297 89.218 9.09497C88.9567 8.91764 88.63 8.82897 88.238 8.82897C87.7994 8.82897 87.426 8.93164 87.118 9.13697C86.8194 9.3423 86.5907 9.62697 86.432 9.99097C86.2734 10.355 86.194 10.7796 86.194 11.265V11.349C86.194 12.1703 86.3854 12.791 86.768 13.211C87.16 13.6216 87.7247 13.827 88.462 13.827C88.742 13.827 89.036 13.7896 89.344 13.715C89.6614 13.6403 89.96 13.5143 90.24 13.337C90.3987 13.2436 90.5387 13.2016 90.66 13.211C90.7907 13.2203 90.8934 13.2623 90.968 13.337C91.052 13.4116 91.1034 13.505 91.122 13.617C91.1407 13.729 91.122 13.8456 91.066 13.967C91.01 14.079 90.912 14.1816 90.772 14.275C90.4547 14.4896 90.086 14.653 89.666 14.765C89.246 14.8676 88.84 14.919 88.448 14.919Z" fill="#971D1D"/>
</svg>
