<svg width="188" height="51" viewBox="0 0 188 51" fill="none" xmlns="http://www.w3.org/2000/svg">
<g clip-path="url(#clip0_86887_650)">
<path d="M9.5 24L9.5 36.75" stroke="#3F3F55" stroke-width="1.5" stroke-linecap="round" stroke-linejoin="round"/>
<path d="M12.5 33.75L9.5 36.75L6.5 33.75" stroke="#3F3F55" stroke-width="1.5" stroke-linecap="round" stroke-linejoin="round"/>
<path d="M15.5 27L15.5 14.25" stroke="#3F3F55" stroke-width="1.5" stroke-linecap="round" stroke-linejoin="round"/>
<path d="M12.5 17.25L15.5 14.25L18.5 17.25" stroke="#3F3F55" stroke-width="1.5" stroke-linecap="round" stroke-linejoin="round"/>
</g>
<path d="M34.98 30.66C33.8067 30.66 32.7987 30.4253 31.956 29.956C31.124 29.476 30.484 28.804 30.036 27.94C29.588 27.0653 29.364 26.036 29.364 24.852C29.364 23.9667 29.492 23.172 29.748 22.468C30.004 21.7533 30.372 21.1453 30.852 20.644C31.332 20.132 31.9187 19.7427 32.612 19.476C33.316 19.1987 34.1053 19.06 34.98 19.06C35.5667 19.06 36.1427 19.1347 36.708 19.284C37.2733 19.4333 37.7693 19.6467 38.196 19.924C38.42 20.0627 38.5693 20.2333 38.644 20.436C38.7187 20.628 38.7347 20.82 38.692 21.012C38.6493 21.1933 38.5587 21.348 38.42 21.476C38.292 21.604 38.1267 21.6787 37.924 21.7C37.732 21.7107 37.5187 21.6413 37.284 21.492C36.9533 21.2787 36.596 21.124 36.212 21.028C35.828 20.932 35.4387 20.884 35.044 20.884C34.2867 20.884 33.6467 21.0387 33.124 21.348C32.6013 21.6573 32.2067 22.1053 31.94 22.692C31.6733 23.2787 31.54 23.9987 31.54 24.852C31.54 25.6947 31.6733 26.4147 31.94 27.012C32.2067 27.6093 32.6013 28.0627 33.124 28.372C33.6467 28.6813 34.2867 28.836 35.044 28.836C35.4493 28.836 35.8493 28.788 36.244 28.692C36.6387 28.5853 37.012 28.4253 37.364 28.212C37.5987 28.0733 37.8067 28.0147 37.988 28.036C38.18 28.0467 38.34 28.1107 38.468 28.228C38.596 28.3453 38.6813 28.4947 38.724 28.676C38.7667 28.8467 38.756 29.028 38.692 29.22C38.628 29.4013 38.5 29.5613 38.308 29.7C37.8813 30.0093 37.3693 30.2493 36.772 30.42C36.1853 30.58 35.588 30.66 34.98 30.66ZM43.167 30.66C42.2817 30.66 41.615 30.4093 41.167 29.908C40.719 29.396 40.495 28.6493 40.495 27.668V20.1C40.495 19.7693 40.5803 19.5187 40.751 19.348C40.9217 19.1773 41.167 19.092 41.487 19.092C41.807 19.092 42.0523 19.1773 42.223 19.348C42.4043 19.5187 42.495 19.7693 42.495 20.1V27.572C42.495 28.0627 42.5963 28.4253 42.799 28.66C43.0123 28.8947 43.311 29.012 43.695 29.012C43.7803 29.012 43.8603 29.012 43.935 29.012C44.0097 29.0013 44.0843 28.9907 44.159 28.98C44.3083 28.9587 44.4097 29.0013 44.463 29.108C44.5163 29.204 44.543 29.4067 44.543 29.716C44.543 29.9827 44.4897 30.1907 44.383 30.34C44.2763 30.4893 44.1003 30.58 43.855 30.612C43.7483 30.6227 43.6363 30.6333 43.519 30.644C43.4017 30.6547 43.2843 30.66 43.167 30.66ZM46.6764 30.612C46.3564 30.612 46.111 30.516 45.9404 30.324C45.7697 30.132 45.6844 29.8653 45.6844 29.524V23.652C45.6844 23.3 45.7697 23.0333 45.9404 22.852C46.111 22.66 46.3564 22.564 46.6764 22.564C46.9964 22.564 47.2417 22.66 47.4124 22.852C47.5937 23.0333 47.6844 23.3 47.6844 23.652V29.524C47.6844 29.8653 47.599 30.132 47.4284 30.324C47.2577 30.516 47.007 30.612 46.6764 30.612ZM46.6764 21.076C46.303 21.076 46.0097 20.9853 45.7964 20.804C45.5937 20.612 45.4924 20.3507 45.4924 20.02C45.4924 19.6787 45.5937 19.4173 45.7964 19.236C46.0097 19.0547 46.303 18.964 46.6764 18.964C47.0604 18.964 47.3537 19.0547 47.5564 19.236C47.759 19.4173 47.8604 19.6787 47.8604 20.02C47.8604 20.3507 47.759 20.612 47.5564 20.804C47.3537 20.9853 47.0604 21.076 46.6764 21.076ZM53.6985 30.66C52.8132 30.66 52.0505 30.4947 51.4105 30.164C50.7705 29.8333 50.2745 29.364 49.9225 28.756C49.5812 28.148 49.4105 27.428 49.4105 26.596C49.4105 25.7853 49.5758 25.076 49.9065 24.468C50.2478 23.86 50.7118 23.3853 51.2985 23.044C51.8958 22.692 52.5732 22.516 53.3305 22.516C53.8852 22.516 54.3812 22.6067 54.8185 22.788C55.2665 22.9693 55.6452 23.2307 55.9545 23.572C56.2745 23.9133 56.5145 24.3293 56.6745 24.82C56.8452 25.3 56.9305 25.844 56.9305 26.452C56.9305 26.644 56.8612 26.7933 56.7225 26.9C56.5945 26.996 56.4078 27.044 56.1625 27.044H51.0265V25.892H55.5225L55.2665 26.132C55.2665 25.6413 55.1918 25.2307 55.0425 24.9C54.9038 24.5693 54.6958 24.3187 54.4185 24.148C54.1518 23.9667 53.8158 23.876 53.4105 23.876C52.9625 23.876 52.5785 23.9827 52.2585 24.196C51.9492 24.3987 51.7092 24.692 51.5385 25.076C51.3785 25.4493 51.2985 25.8973 51.2985 26.42V26.532C51.2985 27.4067 51.5012 28.0627 51.9065 28.5C52.3225 28.9267 52.9305 29.14 53.7305 29.14C54.0078 29.14 54.3172 29.108 54.6585 29.044C55.0105 28.9693 55.3412 28.8467 55.6505 28.676C55.8745 28.548 56.0718 28.4947 56.2425 28.516C56.4132 28.5267 56.5465 28.5853 56.6425 28.692C56.7492 28.7987 56.8132 28.932 56.8345 29.092C56.8558 29.2413 56.8238 29.396 56.7385 29.556C56.6638 29.716 56.5305 29.8547 56.3385 29.972C55.9652 30.2067 55.5332 30.3827 55.0425 30.5C54.5625 30.6067 54.1145 30.66 53.6985 30.66ZM59.5864 30.628C59.2664 30.628 59.021 30.5427 58.8504 30.372C58.6797 30.1907 58.5944 29.9347 58.5944 29.604V23.556C58.5944 23.2253 58.6797 22.9747 58.8504 22.804C59.021 22.6333 59.261 22.548 59.5704 22.548C59.8797 22.548 60.1197 22.6333 60.2904 22.804C60.461 22.9747 60.5464 23.2253 60.5464 23.556V24.644L60.3704 24.244C60.605 23.6787 60.9677 23.252 61.4584 22.964C61.9597 22.6653 62.525 22.516 63.1544 22.516C63.7837 22.516 64.301 22.6333 64.7064 22.868C65.1117 23.1027 65.4157 23.46 65.6184 23.94C65.821 24.4093 65.9224 25.0067 65.9224 25.732V29.604C65.9224 29.9347 65.837 30.1907 65.6664 30.372C65.4957 30.5427 65.2504 30.628 64.9304 30.628C64.6104 30.628 64.3597 30.5427 64.1784 30.372C64.0077 30.1907 63.9224 29.9347 63.9224 29.604V25.828C63.9224 25.22 63.805 24.7773 63.5704 24.5C63.3464 24.2227 62.9944 24.084 62.5144 24.084C61.9277 24.084 61.4584 24.2707 61.1064 24.644C60.765 25.0067 60.5944 25.492 60.5944 26.1V29.604C60.5944 30.2867 60.2584 30.628 59.5864 30.628ZM71.6178 30.66C70.9244 30.66 70.3431 30.5427 69.8738 30.308C69.4151 30.0733 69.0738 29.732 68.8498 29.284C68.6258 28.8253 68.5138 28.26 68.5138 27.588V24.18H67.6818C67.4258 24.18 67.2284 24.116 67.0898 23.988C66.9511 23.8493 66.8818 23.6627 66.8818 23.428C66.8818 23.1827 66.9511 22.996 67.0898 22.868C67.2284 22.74 67.4258 22.676 67.6818 22.676H68.5138V21.22C68.5138 20.8893 68.5991 20.6387 68.7698 20.468C68.9511 20.2973 69.2018 20.212 69.5218 20.212C69.8418 20.212 70.0871 20.2973 70.2578 20.468C70.4284 20.6387 70.5138 20.8893 70.5138 21.22V22.676H72.2098C72.4658 22.676 72.6631 22.74 72.8018 22.868C72.9404 22.996 73.0098 23.1827 73.0098 23.428C73.0098 23.6627 72.9404 23.8493 72.8018 23.988C72.6631 24.116 72.4658 24.18 72.2098 24.18H70.5138V27.476C70.5138 27.988 70.6258 28.372 70.8498 28.628C71.0738 28.884 71.4364 29.012 71.9378 29.012C72.1191 29.012 72.2791 28.996 72.4178 28.964C72.5564 28.932 72.6791 28.9107 72.7858 28.9C72.9138 28.8893 73.0204 28.932 73.1058 29.028C73.1911 29.1133 73.2338 29.2947 73.2338 29.572C73.2338 29.7853 73.1964 29.9773 73.1218 30.148C73.0578 30.308 72.9351 30.42 72.7538 30.484C72.6151 30.5267 72.4338 30.564 72.2098 30.596C71.9858 30.6387 71.7884 30.66 71.6178 30.66ZM78.0322 30.66C77.1469 30.66 76.3842 30.4947 75.7442 30.164C75.1042 29.8333 74.6082 29.364 74.2562 28.756C73.9149 28.148 73.7442 27.428 73.7442 26.596C73.7442 25.7853 73.9096 25.076 74.2402 24.468C74.5816 23.86 75.0456 23.3853 75.6322 23.044C76.2296 22.692 76.9069 22.516 77.6642 22.516C78.2189 22.516 78.7149 22.6067 79.1522 22.788C79.6002 22.9693 79.9789 23.2307 80.2882 23.572C80.6082 23.9133 80.8482 24.3293 81.0082 24.82C81.1789 25.3 81.2642 25.844 81.2642 26.452C81.2642 26.644 81.1949 26.7933 81.0563 26.9C80.9282 26.996 80.7416 27.044 80.4962 27.044H75.3602V25.892H79.8562L79.6002 26.132C79.6002 25.6413 79.5256 25.2307 79.3762 24.9C79.2376 24.5693 79.0296 24.3187 78.7522 24.148C78.4856 23.9667 78.1496 23.876 77.7442 23.876C77.2962 23.876 76.9122 23.9827 76.5922 24.196C76.2829 24.3987 76.0429 24.692 75.8722 25.076C75.7122 25.4493 75.6322 25.8973 75.6322 26.42V26.532C75.6322 27.4067 75.8349 28.0627 76.2402 28.5C76.6562 28.9267 77.2642 29.14 78.0642 29.14C78.3416 29.14 78.6509 29.108 78.9922 29.044C79.3442 28.9693 79.6749 28.8467 79.9843 28.676C80.2083 28.548 80.4056 28.4947 80.5763 28.516C80.7469 28.5267 80.8802 28.5853 80.9762 28.692C81.0829 28.7987 81.1469 28.932 81.1683 29.092C81.1896 29.2413 81.1576 29.396 81.0722 29.556C80.9976 29.716 80.8642 29.8547 80.6722 29.972C80.2989 30.2067 79.8669 30.3827 79.3762 30.5C78.8962 30.6067 78.4482 30.66 78.0322 30.66Z" fill="#3F3F55"/>
<defs>
<clipPath id="clip0_86887_650">
<rect width="24" height="24" fill="white" transform="translate(24.5 13.5) rotate(90)"/>
</clipPath>
</defs>
</svg>
